<?xml version="1.0" standalone="no"?>
<!DOCTYPE svg PUBLIC "-//W3C//DTD SVG 20010904//EN"
 "http://www.w3.org/TR/2001/REC-SVG-20010904/DTD/svg10.dtd">
<svg version="1.0" xmlns="http://www.w3.org/2000/svg"
 width="500.000000pt" height="500.000000pt" viewBox="0 0 500.000000 500.000000"
 preserveAspectRatio="xMidYMid meet">

<g transform="translate(0.000000,500.000000) scale(0.100000,-0.100000)"
fill="#000000" stroke="none">
<path d="M2570 3420 c0 -5 5 -10 11 -10 5 0 7 5 4 10 -3 6 -8 10 -11 10 -2 0
-4 -4 -4 -10z"/>
<path d="M2474 3349 c-9 -16 10 -31 30 -23 13 5 14 9 5 20 -14 17 -25 18 -35
3z"/>
<path d="M2610 3320 c0 -5 5 -10 10 -10 6 0 10 5 10 10 0 6 -4 10 -10 10 -5 0
-10 -4 -10 -10z"/>
<path d="M2370 3236 c-27 -33 18 -72 48 -42 13 13 14 20 6 34 -15 23 -38 26
-54 8z"/>
<path d="M2860 3095 c0 -8 7 -15 15 -15 8 0 15 7 15 15 0 8 -7 15 -15 15 -8 0
-15 -7 -15 -15z"/>
<path d="M2637 3093 c-13 -12 -7 -23 13 -23 13 0 18 5 14 15 -7 16 -17 19 -27
8z"/>
<path d="M2534 3045 c-10 -25 4 -47 28 -43 17 2 24 11 26 31 3 23 0 27 -23 27
-14 0 -28 -7 -31 -15z"/>
<path d="M2930 3020 c0 -5 5 -10 10 -10 6 0 10 5 10 10 0 6 -4 10 -10 10 -5 0
-10 -4 -10 -10z"/>
<path d="M2812 2986 c1 -10 8 -17 13 -17 15 1 12 24 -3 29 -9 3 -13 -2 -10
-12z"/>
<path d="M2831 2822 c-7 -14 -6 -24 4 -38 18 -25 50 -7 50 27 0 31 -39 39 -54
11z"/>
<path d="M2584 2805 c-9 -23 4 -47 23 -43 26 5 28 35 3 48 -16 9 -21 8 -26 -5z"/>
<path d="M410 2564 c0 -96 9 -144 28 -144 4 0 6 56 4 125 -3 101 -6 125 -18
125 -11 0 -14 -20 -14 -106z"/>
<path d="M650 2556 c0 -132 -11 -171 -59 -205 -37 -26 -113 -37 -164 -23 -46
13 -40 -4 9 -24 49 -21 133 -18 172 6 63 39 73 68 70 219 -2 97 -7 136 -15
139 -10 3 -13 -24 -13 -112z"/>
<path d="M1096 2655 c-3 -9 -6 -88 -6 -176 l0 -159 -36 0 c-52 0 -38 -24 16
-28 30 -2 48 1 55 11 14 20 4 359 -11 364 -6 2 -14 -3 -18 -12z"/>
<path d="M1970 2641 l0 -31 -349 0 c-303 0 -350 -2 -361 -16 -11 -12 -10 -18
4 -32 12 -13 19 -14 24 -5 6 9 96 13 355 15 381 3 370 1 365 63 -4 43 -38 48
-38 6z"/>
<path d="M2730 2661 c0 -5 27 -80 60 -167 33 -88 60 -162 60 -166 0 -5 -16 -8
-35 -8 -33 0 -34 -1 -23 -20 14 -22 70 -28 98 -10 12 7 12 12 -4 29 -11 12
-15 21 -10 21 5 0 4 4 -2 8 -15 9 -65 146 -71 191 -2 19 -18 56 -35 83 -32 49
-38 55 -38 39z"/>
<path d="M3297 2663 c-4 -3 -7 -82 -7 -175 l0 -168 -25 0 c-15 0 -25 -6 -25
-15 0 -17 41 -30 73 -22 22 6 22 7 19 184 -2 98 -5 184 -7 191 -5 13 -18 16
-28 5z"/>
<path d="M3732 2603 c-2 -44 -8 -72 -17 -79 -12 -9 -12 -13 2 -27 23 -22 19
-147 -4 -164 -12 -9 -64 -13 -175 -13 -136 0 -157 -2 -152 -15 5 -13 35 -15
180 -15 173 0 174 0 190 25 12 19 14 39 10 92 -7 84 -7 85 0 158 5 50 2 65
-13 84 -18 22 -18 22 -21 -46z"/>
<path d="M3890 2540 c0 -117 2 -130 18 -130 15 0 17 9 15 67 -1 38 -2 96 -3
131 0 48 -3 62 -15 62 -13 0 -15 -21 -15 -130z"/>
<path d="M4517 2664 c-4 -4 -7 -18 -7 -31 l0 -23 -170 0 c-93 0 -170 -4 -170
-8 0 -27 30 -32 185 -32 183 0 199 5 193 60 -3 32 -17 48 -31 34z"/>
<path d="M2534 2636 c-8 -22 3 -33 18 -18 9 9 9 15 0 24 -9 9 -13 7 -18 -6z"/>
<path d="M875 2620 c10 -11 20 -20 23 -20 3 0 -3 9 -13 20 -10 11 -20 20 -23
20 -3 0 3 -9 13 -20z"/>
<path d="M2410 2581 c0 -77 -25 -109 -88 -118 -40 -5 -42 -7 -28 -22 17 -17
87 -17 118 0 32 17 46 60 38 111 -3 26 -3 49 1 50 4 2 -4 11 -17 21 l-24 18 0
-60z"/>
<path d="M3081 2614 c13 -17 26 -30 28 -27 3 2 -8 16 -24 31 l-28 27 24 -31z"/>
<path d="M2070 2602 c0 -25 30 -32 135 -32 62 0 115 3 118 7 4 3 2 12 -4 20
-8 9 -43 13 -130 13 -66 0 -119 -4 -119 -8z"/>
<path d="M3390 2602 c0 -25 30 -32 143 -32 107 0 118 2 115 18 -3 15 -19 17
-131 20 -70 1 -127 -1 -127 -6z"/>
<path d="M946 2533 c26 -35 49 -63 51 -63 6 0 -31 50 -67 90 -17 19 -10 7 16
-27z"/>
<path d="M810 2443 l0 -123 -31 0 c-47 0 -30 -24 19 -28 l42 -3 0 98 c0 55 4
103 10 109 6 6 1 20 -15 39 l-24 30 -1 -122z"/>
<path d="M2619 2443 c-42 -106 -49 -118 -73 -121 -42 -5 -33 -32 12 -32 36 0
79 30 65 44 -4 3 -2 6 3 6 5 0 10 8 11 18 1 10 13 47 27 82 30 73 31 80 14
103 -11 15 -19 1 -59 -100z"/>
<path d="M3010 2443 l0 -123 -29 0 c-16 0 -31 -6 -34 -13 -4 -10 8 -14 44 -16
l49 -2 0 43 c0 24 4 60 9 80 5 22 5 36 0 32 -12 -7 -11 40 1 52 6 6 1 20 -15
39 l-24 30 -1 -122z"/>
<path d="M3158 2505 c-36 -45 -44 -62 -36 -72 25 -30 91 45 86 98 l-3 34 -47
-60z"/>
<path d="M1690 2485 c0 -26 6 -48 15 -55 13 -11 15 -5 15 42 0 42 -3 55 -15
55 -11 0 -15 -12 -15 -42z"/>
<path d="M4522 2518 c-7 -7 -12 -22 -12 -35 0 -23 -1 -23 -140 -23 l-140 0 0
-25 c0 -18 5 -25 20 -25 11 0 20 4 20 10 0 5 57 11 138 12 l137 3 3 32 c4 42
-9 68 -26 51z"/>
<path d="M1530 2439 c0 -57 -3 -68 -26 -90 -24 -23 -33 -24 -170 -27 -128 -3
-162 -10 -136 -26 5 -3 74 -6 154 -7 159 -2 174 2 207 58 14 22 16 38 9 77 -4
27 -14 57 -23 65 -13 14 -15 9 -15 -50z"/>
<path d="M1231 2448 c11 -10 35 -18 53 -19 62 -1 161 3 165 7 15 14 -28 23
-127 26 -109 3 -112 2 -91 -14z"/>
<path d="M3450 2439 c0 -29 2 -31 28 -24 15 4 60 9 100 12 60 4 72 7 68 20 -3
8 -6 17 -6 19 0 2 -43 4 -95 4 l-95 0 0 -31z"/>
<path d="M2130 2392 l0 -72 -30 0 c-35 0 -40 -17 -8 -29 34 -12 68 -2 69 23 2
37 8 79 13 91 2 7 -6 23 -20 36 l-24 22 0 -71z"/>
<path d="M1988 2383 c-12 -3 -18 -14 -18 -34 l0 -29 -144 0 c-80 0 -157 5
-173 11 l-28 10 25 -26 24 -25 165 2 166 3 1 48 c1 26 1 46 0 46 0 -1 -9 -3
-18 -6z"/>
<path d="M4080 2355 l0 -35 -126 0 c-96 0 -125 -3 -122 -12 3 -9 42 -14 136
-16 141 -3 148 0 147 53 -1 51 -35 61 -35 10z"/>
<path d="M4516 2374 c-3 -8 -6 -24 -6 -35 0 -18 -9 -19 -171 -19 -132 0 -170
-3 -167 -12 6 -17 105 -24 253 -18 l120 5 3 36 c3 40 -21 73 -32 43z"/>
<path d="M2286 2305 c8 -20 148 -23 142 -2 -3 8 -30 13 -76 15 -61 2 -71 1
-66 -13z"/>
<path d="M3317 2206 c-7 -16 1 -26 20 -26 7 0 13 9 13 20 0 23 -25 27 -33 6z"/>
<path d="M3353 2153 c-9 -3 -13 -31 -13 -89 l0 -84 -125 0 c-115 0 -125 -2
-125 -18 0 -17 9 -18 133 -15 72 3 138 6 145 9 10 3 13 27 11 100 -2 52 -5 97
-8 98 -3 2 -12 1 -18 -1z"/>
<path d="M4266 2153 c-3 -4 -6 -26 -6 -50 0 -36 3 -43 20 -43 17 0 20 7 20 44
0 41 -17 65 -34 49z"/>
<path d="M4517 2154 c-4 -4 -7 -27 -7 -51 0 -37 3 -43 21 -43 18 0 20 5 17 47
-3 44 -15 62 -31 47z"/>
<path d="M3730 2017 c0 -90 -4 -137 -12 -145 -8 -8 -56 -12 -150 -12 -129 0
-158 -6 -125 -27 16 -10 309 -5 320 6 10 10 12 259 3 289 -4 12 -14 22 -22 22
-11 0 -14 -24 -14 -133z"/>
<path d="M4120 2065 l0 -85 -125 0 c-117 0 -125 -1 -125 -19 0 -18 7 -19 138
-14 75 3 142 10 147 15 15 14 12 153 -4 172 -25 30 -31 16 -31 -69z"/>
<path d="M3052 2091 c10 -17 23 -19 112 -17 87 1 101 3 104 19 3 15 -7 17
-112 17 -112 0 -116 -1 -104 -19z"/>
<path d="M3480 2025 c0 -78 2 -85 20 -85 14 0 20 7 21 23 0 12 1 42 2 67 l2
45 68 0 c57 0 67 3 67 18 0 15 -11 17 -90 17 l-90 0 0 -85z"/>
<path d="M3830 2095 c10 -12 36 -15 116 -15 86 0 104 3 104 15 0 12 -20 15
-116 15 -102 0 -115 -2 -104 -15z"/>
<path d="M4560 2006 c0 -21 -5 -26 -25 -26 -24 0 -25 -2 -25 -65 0 -59 -2 -65
-21 -65 -12 0 -19 -5 -16 -12 2 -7 19 -13 38 -13 l34 0 3 58 c3 51 6 59 28 67
21 8 25 16 22 42 -4 42 -38 54 -38 14z"/>
<path d="M3550 1965 c-18 -21 -9 -27 36 -23 36 3 37 4 20 21 -21 21 -40 22
-56 2z"/>
<path d="M4230 1965 c10 -11 36 -15 111 -15 81 0 99 3 99 15 0 12 -19 15 -111
15 -98 0 -110 -2 -99 -15z"/>
<path d="M3347 1903 c-4 -3 -7 -15 -7 -25 0 -17 -11 -18 -146 -18 -131 0 -145
-2 -134 -15 11 -13 40 -16 170 -14 l157 1 -2 27 c-2 42 -20 63 -38 44z"/>
<path d="M4127 1904 c-4 -4 -7 -16 -7 -26 0 -17 -11 -18 -146 -18 -130 0 -145
-2 -134 -15 11 -13 38 -15 164 -13 l151 3 0 34 c0 33 -13 49 -28 35z"/>
<path d="M3630 1805 c-11 -13 -11 -19 3 -32 21 -21 49 -9 45 19 -4 28 -30 35
-48 13z"/>
<path d="M3254 1786 c-9 -24 4 -48 23 -44 12 2 18 12 18 28 0 29 -32 41 -41
16z"/>
<path d="M3280 1650 c0 -5 5 -10 10 -10 6 0 10 5 10 10 0 6 -4 10 -10 10 -5 0
-10 -4 -10 -10z"/>
<path d="M3606 1653 c-12 -12 -6 -33 9 -33 8 0 15 6 15 14 0 17 -14 28 -24 19z"/>
<path d="M3424 1635 c-4 -9 -2 -21 4 -27 16 -16 47 -5 47 17 0 26 -42 34 -51
10z"/>
<path d="M3720 1599 c0 -5 5 -7 10 -4 6 3 10 8 10 11 0 2 -4 4 -10 4 -5 0 -10
-5 -10 -11z"/>
<path d="M3225 1550 c-3 -5 1 -10 10 -10 9 0 13 5 10 10 -3 6 -8 10 -10 10 -2
0 -7 -4 -10 -10z"/>
<path d="M3327 1554 c-9 -10 2 -24 19 -24 8 0 14 7 14 15 0 15 -21 21 -33 9z"/>
</g>
</svg>
